<svg xmlns="http://www.w3.org/2000/svg" width="945" height="1085" viewBox="0 0 945 1085" version="1.1"><path d="M 131.667 90.667 C 130.708 91.625, 130.871 1005.249, 131.830 1006.760 C 132.459 1007.750, 142.780 1007.964, 180.065 1007.760 L 227.500 1007.500 227.753 850.250 C 227.968 716.695, 228.216 693, 229.398 693 C 234.209 693, 271.527 689.763, 281.500 688.481 C 306.504 685.266, 341.057 677.980, 360 671.928 C 363.575 670.785, 367.850 669.483, 369.500 669.034 C 375.818 667.314, 398.011 658.994, 409.486 654.044 C 423.409 648.038, 450 634.492, 456.570 630.058 C 459.061 628.376, 461.320 627, 461.588 627 C 462.513 627, 480.520 614.637, 490.500 607.150 C 509.573 592.841, 527.927 575.385, 547.437 553 C 554.278 545.152, 573.050 518.710, 577.611 510.500 C 578.222 509.400, 580.409 505.575, 582.472 502 C 590.927 487.343, 601.794 464.133, 606.351 451 C 607.210 448.525, 609.047 443.350, 610.435 439.500 L 612.958 432.500 612.979 261.250 L 613 90 565 90 L 517 90 517 250.178 L 517 410.355 513.896 418.928 C 511.102 426.646, 496.880 456.646, 493.755 461.415 C 493.065 462.468, 489.469 467.969, 485.764 473.640 C 466.158 503.653, 436.723 530.721, 401.500 551.128 C 385.398 560.457, 354.101 573.638, 336.500 578.503 C 299.982 588.597, 273.199 593.215, 243.250 594.583 L 228 595.279 228 342.640 L 228 90 180.167 90 C 153.858 90, 132.033 90.300, 131.667 90.667 M 324.607 91.582 C 324.273 92.452, 324 190.327, 324 309.082 L 324 525 326.330 525 C 328.495 525, 354.747 516.783, 361.500 513.991 C 363.150 513.309, 365.400 512.393, 366.500 511.956 C 378.720 507.100, 405.382 493.584, 409.079 490.372 C 409.947 489.617, 410.946 489, 411.300 489 C 411.653 489, 413.980 487.563, 416.471 485.807 L 421 482.615 421 286.307 L 421 90 373.107 90 C 330.357 90, 325.149 90.170, 324.607 91.582 M 709.973 201.250 C 709.958 262.438, 709.836 331.400, 709.702 354.500 L 709.459 396.500 704.311 409.500 C 701.480 416.650, 697.778 426.012, 696.085 430.304 C 694.392 434.597, 691.922 440.447, 690.596 443.304 C 689.270 446.162, 687.191 450.750, 685.977 453.500 C 683.229 459.719, 670.805 484.604, 666.755 492 C 658.040 507.911, 636.544 542.114, 634.805 542.833 C 634.362 543.017, 634 543.598, 634 544.124 C 634 545.131, 617.860 566.950, 612.581 573.077 C 610.887 575.045, 607.700 578.819, 605.500 581.465 C 597.435 591.162, 590.260 598.840, 575.050 614.049 C 557.359 631.740, 550.749 637.780, 538.500 647.450 C 535.750 649.621, 533.050 651.894, 532.500 652.501 C 529.335 655.993, 489.277 684.244, 484 686.706 C 483.175 687.091, 480.635 688.664, 478.355 690.203 C 476.075 691.741, 473.975 693, 473.688 693 C 473.400 693, 469.758 695.014, 465.594 697.476 C 431.864 717.418, 385.462 735.509, 350 742.542 C 345.325 743.470, 338.876 744.852, 335.669 745.614 C 332.462 746.376, 328.758 747, 327.438 747 C 325.777 747, 324.871 747.692, 324.495 749.250 C 324.196 750.488, 324.075 809.100, 324.226 879.500 L 324.500 1007.500 372.750 1007.760 L 421 1008.019 421 915.644 L 421 823.268 427.250 821.056 C 430.688 819.840, 434.918 818.205, 436.651 817.422 C 438.384 816.640, 440.116 816, 440.500 816 C 440.884 816, 442.728 815.325, 444.599 814.500 C 446.469 813.675, 449.531 812.325, 451.401 811.500 C 453.272 810.675, 455.071 810, 455.398 810 C 456.916 810, 497.386 790.363, 508 784.477 C 511.575 782.494, 520.800 777.056, 528.500 772.392 C 536.200 767.729, 543.398 763.370, 544.496 762.707 C 545.594 762.043, 548.134 760.263, 550.140 758.750 C 552.146 757.237, 554.051 756, 554.373 756 C 555.562 756, 584.674 734.741, 596 725.601 C 613.737 711.289, 625.635 700.445, 645.500 680.485 C 664.087 661.810, 668.706 656.807, 680.500 642.579 C 682.700 639.925, 685.347 636.796, 686.382 635.627 C 687.417 634.457, 692.800 627.483, 698.345 620.130 C 708.154 607.120, 708.447 606.837, 709.220 609.630 C 709.657 611.208, 709.996 683.150, 709.973 769.500 C 709.950 855.850, 709.947 944.837, 709.966 967.250 L 710 1008 758 1008 L 806 1008 806.021 938.750 C 806.058 811.326, 806.068 241.429, 806.034 165.250 L 806 90 758 90 L 710 90 709.973 201.250 M 608.711 770.567 C 604.419 774.547, 595.334 781.935, 586 789.034 C 581.325 792.590, 577.275 795.728, 577 796.007 C 575.708 797.318, 561.225 807.383, 549.500 815.119 C 536.666 823.587, 531.291 826.941, 522.164 832.174 L 517.500 834.848 517.244 921.424 L 516.989 1008 564.994 1008 L 613 1008 613 888 C 613 822, 612.658 768, 612.240 768 C 611.822 768, 610.234 769.155, 608.711 770.567" stroke="none" fill="currentColor" fill-rule="evenodd"/></svg>
